<?xml version="1.0" standalone="no"?>
<!DOCTYPE svg PUBLIC "-//W3C//DTD SVG 20010904//EN"
 "http://www.w3.org/TR/2001/REC-SVG-20010904/DTD/svg10.dtd">
<svg version="1.0" xmlns="http://www.w3.org/2000/svg"
 width="1336.000000pt" height="1336.000000pt" viewBox="0 0 1336.000000 1336.000000"
 preserveAspectRatio="xMidYMid meet">
<metadata>
Created by potrace 1.14, written by Peter Selinger 2001-2017
</metadata>
<g transform="translate(0.000000,1336.000000) scale(0.100000,-0.100000)"
fill="#000000" stroke="none">
<path d="M7139 10456 c-2 -2 -40 -6 -84 -9 -133 -10 -445 -63 -475 -82 -3 -2
-17 -6 -31 -9 -100 -19 -352 -117 -514 -199 -179 -91 -274 -149 -420 -258
-137 -102 -149 -112 -316 -279 l-156 -157 -119 122 c-302 307 -624 506 -1060
655 -65 22 -121 41 -124 41 -3 0 -21 4 -40 9 -19 5 -46 11 -60 14 -14 3 -61
12 -105 21 -44 9 -96 18 -115 21 -19 2 -44 7 -56 9 -22 5 -70 11 -169 22 -33
3 -585 8 -1227 10 l-1168 4 0 -105 c0 -306 91 -552 265 -714 72 -68 160 -120
254 -152 138 -46 174 -48 951 -50 404 -1 749 -3 765 -4 17 -2 62 -7 100 -11
39 -4 73 -9 77 -11 4 -3 26 -7 50 -10 84 -12 275 -76 384 -130 429 -211 692
-602 769 -1139 14 -100 15 -460 1 -550 -15 -93 -28 -162 -36 -190 -5 -16 -11
-41 -14 -55 -12 -65 -74 -227 -121 -315 -32 -59 -67 -118 -75 -125 -3 -3 -17
-23 -31 -45 -123 -188 -382 -384 -621 -471 -79 -29 -198 -63 -241 -69 -23 -4
-44 -8 -47 -10 -7 -4 -89 -14 -190 -23 -47 -4 -308 -7 -580 -7 l-495 0 -1 615
c-2 687 -3 716 -43 859 -72 257 -219 439 -449 555 -54 27 -203 80 -257 91 -95
19 -174 27 -287 29 l-128 2 0 -988 0 -988 -267 0 -268 0 -29 36 c-75 95 -219
87 -291 -15 -26 -37 -30 -52 -30 -106 0 -56 4 -68 31 -102 81 -100 197 -107
285 -18 l42 42 263 0 264 0 2 -176 3 -175 333 0 334 0 24 31 c40 51 84 72 152
70 51 -2 66 -7 99 -33 73 -58 99 -164 56 -235 -66 -114 -213 -132 -300 -36
l-36 40 -334 1 -333 1 0 -177 0 -176 -124 0 -123 1 -17 28 c-24 41 -106 78
-161 73 -228 -19 -226 -345 2 -368 60 -6 141 36 170 88 7 13 178 16 1328 19
726 2 1338 6 1360 10 22 4 60 9 85 12 308 37 627 134 910 275 102 51 324 181
340 199 3 3 43 35 90 71 119 90 237 200 329 305 l34 39 55 -65 c59 -67 243
-253 302 -304 273 -235 668 -447 1014 -544 98 -28 229 -58 281 -66 11 -1 38
-5 60 -9 22 -3 58 -8 80 -11 22 -2 64 -7 94 -11 150 -17 635 -3 721 21 8 3 34
7 56 10 60 7 234 44 246 51 6 4 298 7 648 7 351 -1 642 2 647 6 9 6 36 74 93
231 15 41 30 82 33 90 3 8 29 78 57 155 28 77 60 164 71 193 10 28 28 78 40
110 12 31 29 77 38 102 l17 45 1019 0 1018 0 167 -465 168 -465 603 -2 c332
-1 609 0 616 2 7 2 -13 64 -57 177 -38 95 -103 261 -145 368 -42 107 -80 204
-85 215 -5 11 -55 137 -110 280 -56 143 -137 350 -180 460 -71 179 -129 326
-277 705 -25 63 -82 210 -127 325 -305 775 -761 1938 -828 2110 -27 72 -56
144 -63 160 -7 17 -31 80 -55 140 -23 61 -48 124 -55 140 -6 17 -18 46 -25 65
-7 19 -17 39 -21 44 -6 6 -929 12 -1039 7 -15 -1 -20 -9 -60 -111 -12 -30 -30
-71 -38 -90 -9 -19 -16 -37 -17 -40 0 -3 -19 -50 -42 -105 -23 -55 -81 -194
-128 -310 -48 -115 -92 -223 -100 -240 -7 -16 -39 -93 -70 -170 -32 -77 -68
-165 -80 -195 -13 -30 -39 -95 -60 -145 -20 -49 -42 -103 -50 -120 -7 -16 -34
-82 -60 -145 -26 -63 -62 -151 -81 -196 -19 -45 -34 -84 -34 -87 0 -4 -11 -30
-24 -59 -43 -96 -96 -226 -96 -237 0 -6 -21 -11 -47 -12 -27 0 -387 -1 -801
-2 l-753 -2 -74 -170 c-41 -93 -80 -181 -86 -195 -6 -14 -17 -38 -24 -55 -28
-68 -34 -82 -53 -125 -11 -25 -48 -108 -82 -185 -33 -77 -71 -162 -84 -190
-13 -27 -22 -52 -19 -55 2 -2 61 -5 131 -6 113 -1 805 -12 1147 -18 107 -2
130 -5 128 -17 -3 -23 -10 -52 -21 -79 -5 -14 -10 -28 -11 -33 0 -4 -8 -23
-16 -43 -8 -20 -15 -42 -15 -48 0 -7 -4 -16 -9 -21 -4 -6 -25 -41 -46 -80
-116 -216 -310 -400 -536 -507 -79 -37 -242 -93 -301 -103 -18 -3 -58 -10 -88
-15 -130 -24 -361 -32 -500 -17 -521 55 -948 352 -1183 822 -69 139 -132 335
-152 472 -3 23 -8 57 -11 75 -3 18 -7 116 -9 218 -3 181 9 331 35 445 7 28 14
61 16 74 3 13 19 65 36 115 192 570 673 947 1294 1014 115 13 373 6 493 -12
57 -9 107 -18 110 -21 4 -2 19 -6 34 -9 15 -4 38 -8 52 -11 58 -12 207 -72
303 -121 118 -61 247 -151 338 -236 34 -32 65 -55 68 -49 3 5 53 128 110 272
57 145 139 352 181 459 142 360 136 340 117 347 -9 4 -19 9 -22 13 -10 12
-150 90 -265 148 -162 80 -394 166 -536 198 -10 2 -27 6 -36 8 -90 21 -122 28
-148 32 -16 3 -41 7 -55 10 -14 4 -43 8 -65 10 -22 2 -74 9 -115 15 -69 10
-542 23 -551 15z m3685 -1881 c59 -165 111 -309 116 -320 7 -16 258 -711 356
-985 12 -36 34 -96 48 -135 14 -38 26 -71 26 -72 0 -2 -301 -3 -670 -3 -368 0
-670 3 -670 7 0 8 14 47 95 263 26 69 48 132 50 140 4 14 78 213 95 255 12 29
44 115 85 230 20 55 51 141 70 190 18 50 52 142 75 205 23 63 46 124 50 135 5
11 42 109 82 217 40 109 75 192 79 185 3 -7 54 -147 113 -312z"/>
<path d="M917 4525 c-2 -5 -3 -143 -3 -305 l1 -295 142 -2 c153 -2 198 6 253
45 53 39 69 58 97 119 31 67 38 171 16 242 -30 101 -114 179 -211 197 -60 11
-291 11 -295 -1z m293 -68 c35 -8 81 -39 105 -72 93 -121 53 -319 -77 -378
-36 -17 -228 -30 -246 -17 -6 4 -9 463 -3 478 1 4 200 -5 221 -11z"/>
<path d="M1679 4532 c-11 -2 -14 -11 -11 -32 4 -28 7 -30 52 -30 l47 0 1 -239
c1 -179 -2 -240 -11 -243 -7 -3 -28 -4 -47 -3 -37 1 -51 -14 -42 -47 4 -16 19
-18 137 -18 l132 0 -2 28 c-1 15 -3 30 -3 34 -1 3 -22 5 -46 3 -27 -1 -46 2
-48 9 -2 6 -3 115 -3 241 l1 230 51 3 c51 3 51 3 49 35 l-2 32 -120 0 c-65 0
-126 -1 -135 -3z"/>
<path d="M2390 4524 c-84 -25 -137 -67 -186 -150 -45 -76 -46 -216 -2 -299 26
-49 89 -106 148 -134 46 -21 69 -26 140 -26 80 0 90 2 141 34 80 48 120 113
127 203 l5 68 -42 1 c-22 0 -70 1 -106 1 -135 0 -132 0 -129 -24 1 -13 3 -28
3 -34 1 -8 30 -11 89 -9 48 1 93 0 100 -3 36 -13 -7 -98 -73 -144 -36 -24 -47
-27 -120 -24 -87 2 -124 16 -174 65 -78 76 -95 190 -44 291 67 130 228 169
354 84 49 -33 53 -34 70 -18 27 24 24 38 -15 68 -75 57 -193 77 -286 50z"/>
<path d="M2990 4503 c0 -33 0 -33 50 -33 l50 0 0 -239 c0 -261 3 -249 -62
-246 -37 1 -38 0 -38 -32 l0 -33 134 0 134 0 -1 32 c-2 31 -4 32 -44 33 -23 0
-45 3 -49 7 -4 4 -8 114 -8 243 l-1 235 53 0 53 0 -4 32 -3 33 -132 0 -132 1
0 -33z"/>
<path d="M3486 4530 c-1 -3 -3 -17 -4 -32 -2 -31 -5 -30 111 -29 l67 1 0 -275
0 -275 35 0 35 0 0 275 0 276 88 -3 87 -2 3 34 3 35 -211 0 c-117 0 -213 -2
-214 -5z"/>
<path d="M4331 4521 c-10 -18 -231 -590 -231 -597 0 -2 15 -4 34 -4 32 0 34 2
66 85 l33 85 138 0 137 0 33 -85 32 -85 37 0 38 0 -19 53 c-11 28 -24 61 -29
72 -5 11 -16 38 -23 60 -17 49 -159 419 -162 423 -1 1 -19 4 -39 6 -26 3 -39
-1 -45 -13z m127 -300 c12 -30 20 -57 17 -60 -2 -4 -50 -6 -107 -6 -84 1 -102
4 -100 16 1 8 26 76 54 153 l51 138 32 -93 c18 -52 42 -118 53 -148z"/>
<path d="M4919 4532 c-1 -4 -2 -143 -3 -309 l-1 -303 181 0 c191 0 197 1 185
46 -6 19 -13 20 -151 20 l-145 -1 0 268 c0 148 -2 272 -5 275 -7 10 -60 13
-61 4z"/>
<path d="M6125 4522 c-129 -42 -214 -160 -215 -295 0 -85 25 -150 81 -211 68
-75 129 -100 239 -100 68 0 93 4 127 22 91 47 139 121 146 225 5 65 16 59
-108 59 -177 0 -165 2 -165 -36 l0 -33 96 1 c53 1 98 -2 101 -7 11 -19 -10
-78 -38 -107 -48 -48 -93 -62 -174 -57 -87 5 -147 39 -195 108 -60 88 -47 228
28 305 49 51 96 69 177 69 73 -1 117 -17 163 -58 l22 -20 25 23 c23 22 24 25
9 42 -24 26 -93 64 -134 74 -55 12 -141 11 -185 -4z"/>
<path d="M6932 4525 c-96 -29 -167 -104 -197 -208 -21 -73 -12 -185 21 -248
23 -46 88 -106 140 -131 70 -33 189 -32 258 2 119 57 178 163 172 308 -7 161
-128 283 -286 288 -36 1 -84 -4 -108 -11z m201 -80 c91 -43 144 -179 116 -295
-11 -42 -52 -99 -95 -130 -46 -33 -53 -35 -129 -35 -62 0 -88 5 -114 21 -141
83 -157 313 -29 417 67 54 166 63 251 22z"/>
<path d="M7510 4528 c0 -6 28 -81 62 -167 34 -86 62 -158 63 -161 0 -3 12 -34
27 -70 14 -36 39 -98 54 -137 27 -72 28 -73 63 -73 l36 0 79 198 c44 108 87
215 96 237 26 61 59 148 62 164 2 9 -8 15 -30 17 -29 2 -35 -2 -47 -29 -17
-37 -96 -237 -99 -252 -2 -5 -6 -17 -9 -25 -4 -8 -24 -61 -45 -118 l-39 -104
-22 64 c-13 35 -29 77 -36 93 -7 17 -27 68 -45 115 -17 47 -37 99 -44 115 -8
17 -22 53 -32 80 -9 28 -19 52 -21 54 -7 9 -73 8 -73 -1z"/>
<path d="M8327 4532 c-16 -3 -17 -30 -17 -308 l0 -304 188 0 189 0 1 30 c1 35
11 32 -148 35 -69 2 -133 3 -142 4 -16 1 -18 13 -18 106 0 102 1 105 23 106
12 0 70 1 129 1 l107 1 -1 33 -1 34 -129 0 -128 0 0 100 0 99 118 0 c208 -1
192 -4 190 34 l-1 32 -172 0 c-94 0 -179 -1 -188 -3z"/>
<path d="M8985 4530 c-5 -8 -7 -119 -6 -387 l1 -223 35 0 35 0 0 123 0 122 57
-2 c32 -1 70 -2 85 -2 23 -1 35 -16 95 -121 l68 -119 42 -1 42 0 -69 119 c-39
66 -70 123 -70 128 0 4 18 21 40 36 86 61 97 191 22 270 -46 49 -84 59 -235
61 -76 1 -140 0 -142 -4z m298 -83 c56 -36 73 -94 47 -157 -22 -53 -60 -63
-222 -61 l-58 1 0 120 0 121 103 -3 c78 -3 110 -8 130 -21z"/>
<path d="M9713 4533 c-10 -4 -13 -75 -13 -309 l0 -304 36 0 37 0 -5 250 c-3
138 -2 247 2 243 4 -4 51 -66 105 -138 54 -71 106 -138 114 -147 9 -9 48 -60
86 -112 67 -91 72 -96 105 -93 l35 2 0 302 c0 326 2 315 -51 305 -21 -4 -21
-7 -18 -254 l4 -250 -28 35 c-15 19 -36 48 -47 63 -11 15 -29 39 -41 53 -11
14 -74 96 -139 181 -64 85 -121 158 -124 163 -10 10 -43 16 -58 10z"/>
<path d="M10542 4531 c-7 -4 -10 -106 -10 -309 l1 -303 35 3 35 3 -2 215 c0
118 -3 227 -6 243 -3 15 -4 27 -1 27 4 0 59 -83 81 -122 50 -88 120 -187 137
-191 26 -7 39 8 133 157 44 70 85 134 90 142 7 10 9 -65 8 -231 l-3 -245 35 0
35 0 -2 308 c-3 334 1 308 -53 303 -9 0 -19 -9 -23 -18 -4 -10 -28 -51 -55
-91 -26 -40 -47 -77 -47 -82 0 -6 -3 -10 -8 -10 -4 0 -18 -20 -32 -45 -14 -25
-27 -45 -30 -45 -3 0 -11 -14 -19 -30 -15 -36 -26 -31 -56 27 -11 21 -24 43
-28 48 -7 9 -128 201 -146 234 -9 15 -52 23 -69 12z"/>
<path d="M11440 4532 c-6 -2 -10 -114 -10 -308 l0 -304 185 0 c116 0 185 4
186 10 7 59 16 55 -136 57 -77 0 -146 1 -152 2 -10 1 -13 29 -13 106 0 93 2
105 18 106 9 1 65 1 125 1 59 0 108 4 108 9 7 57 14 54 -124 57 l-127 3 0 99
0 99 118 0 c201 -1 187 -3 188 31 1 17 -1 31 -5 31 -16 3 -352 4 -361 1z"/>
<path d="M12099 4526 c0 -6 -1 -144 -2 -306 l-1 -295 36 -3 35 -3 -2 239 c-1
132 -6 246 -10 253 -22 40 49 -46 175 -211 77 -102 153 -200 168 -219 15 -18
31 -40 35 -47 4 -8 24 -14 42 -14 l35 0 0 308 0 308 -32 -1 -33 -2 0 -251 c0
-139 0 -252 -1 -252 -1 0 -68 89 -150 198 -82 108 -151 199 -154 202 -4 4 -65
83 -76 99 -7 9 -64 7 -65 -3z"/>
<path d="M12871 4530 c-7 -4 -7 -26 -2 -60 1 -3 35 -4 77 -2 41 2 80 -1 87 -6
9 -8 12 -81 11 -276 l-1 -266 34 0 33 0 1 248 c1 136 2 258 2 272 2 24 4 25
87 27 47 1 88 2 91 2 11 1 6 61 -5 62 -36 4 -409 3 -415 -1z"/>
<path d="M928 3525 c0 0 -2 -139 -3 -308 l-1 -308 150 2 c87 0 156 5 164 11 6
6 12 8 12 4 0 -13 79 34 111 66 89 90 110 261 45 385 -9 18 -35 51 -59 73 -67
65 -134 77 -419 75z m313 -87 c53 -23 77 -47 106 -103 47 -89 31 -217 -34
-292 -41 -46 -98 -66 -201 -68 -53 -1 -102 0 -109 3 -9 3 -12 63 -11 235 0
128 2 235 4 238 8 14 209 2 245 -13z"/>
<path d="M1709 3520 c-1 -3 -2 -141 -3 -307 l-2 -303 189 0 188 0 -4 33 -3 32
-150 0 -149 0 -2 108 -1 107 129 0 129 0 0 36 c0 31 -3 35 -22 34 -13 -1 -71
-2 -129 -1 l-106 1 1 98 1 97 150 1 150 1 3 31 c2 21 -1 32 -10 33 -44 4 -358
3 -359 -1z"/>
<path d="M2290 3515 c0 -6 3 -15 7 -19 4 -3 8 -12 9 -19 2 -7 51 -137 111
-289 l108 -278 36 0 c20 0 39 6 42 13 40 98 101 250 112 277 24 66 105 265
116 287 15 29 7 39 -31 38 -30 -1 -34 -5 -57 -65 -14 -36 -31 -78 -38 -95 -7
-16 -34 -86 -59 -155 -26 -69 -51 -134 -56 -145 -5 -11 -12 -31 -16 -45 -6
-23 -7 -23 -20 10 -7 19 -29 77 -49 128 -19 50 -51 134 -70 185 -72 186 -69
181 -109 182 -21 1 -36 -3 -36 -10z"/>
<path d="M3089 3520 c-4 -3 -8 -142 -8 -308 l0 -302 187 2 c204 3 191 -1 183
56 0 5 -67 8 -148 8 l-148 -1 -3 108 -3 107 129 0 129 0 -1 33 -1 32 -128 3
-127 3 0 98 0 98 140 -1 c77 -1 146 1 153 4 6 3 13 19 14 35 l3 30 -181 0
c-100 0 -185 -2 -190 -5z"/>
<path d="M3747 3520 c-11 -4 -13 -59 -13 -307 l0 -303 184 0 183 0 -3 33 -3
32 -145 0 -145 0 -2 260 c0 143 -2 267 -2 275 -1 16 -27 21 -54 10z"/>
<path d="M4520 3522 c-167 -55 -255 -207 -220 -378 31 -151 151 -245 307 -241
165 5 283 125 289 293 6 148 -66 265 -191 315 -31 12 -159 20 -185 11z m201
-98 c64 -43 100 -108 104 -186 4 -90 -17 -151 -70 -203 -86 -87 -229 -88 -322
-3 -54 50 -83 177 -58 260 17 58 67 122 116 146 65 33 170 26 230 -14z"/>
<path d="M5162 3515 c-4 -5 -7 -143 -7 -305 l1 -295 36 -3 36 -3 -2 111 c-1
61 1 114 4 119 3 5 55 10 117 13 107 3 113 5 150 34 89 71 100 201 24 288 -15
17 -46 34 -81 43 -36 9 -272 8 -278 -2z m310 -94 c22 -25 28 -41 28 -77 0 -78
-38 -124 -104 -125 -23 0 -69 -1 -103 -2 -50 -2 -63 1 -64 13 -1 8 -2 63 -3
121 l-1 106 109 -2 c109 -2 109 -2 138 -34z"/>
<path d="M5841 3522 c-8 -3 -11 -94 -11 -308 l0 -304 36 0 35 0 -3 244 -3 244
45 -72 c25 -39 70 -110 99 -157 70 -112 87 -113 146 -15 17 27 37 59 45 72 8
13 35 55 60 94 24 38 48 70 52 70 4 0 5 -15 2 -32 -3 -18 -6 -126 -7 -241 l-2
-207 36 0 35 0 1 300 c0 207 -3 303 -11 307 -23 15 -48 9 -64 -16 -9 -14 -19
-28 -22 -31 -3 -3 -12 -17 -20 -31 -48 -83 -166 -268 -171 -269 -3 0 -12 12
-20 27 -8 15 -32 55 -54 89 -22 34 -65 102 -96 151 -54 87 -69 98 -108 85z"/>
<path d="M6720 3520 c-4 -3 -8 -141 -8 -307 l0 -303 188 0 187 0 1 30 c0 17
-2 31 -6 31 -4 1 -72 2 -152 3 l-145 1 -3 108 -3 107 130 0 129 0 -1 33 -2 32
-127 3 -128 3 0 98 0 98 138 0 c75 1 145 2 154 2 14 1 17 9 15 33 l-2 32 -179
1 c-98 0 -181 -2 -186 -5z"/>
<path d="M7374 3522 c-6 -4 -9 -132 -9 -309 l0 -301 32 -4 c18 -2 34 1 34 7 4
31 -1 426 -5 460 l-5 40 25 -30 c14 -16 44 -55 67 -85 295 -387 298 -390 332
-390 l34 0 0 305 c0 168 -3 305 -7 306 -4 0 -20 2 -35 3 l-29 2 4 -253 c1
-139 2 -253 1 -253 -1 0 -86 110 -189 245 -103 136 -191 248 -196 251 -15 9
-45 12 -54 6z"/>
<path d="M8130 3522 c-6 -2 -10 -17 -10 -33 0 -25 4 -29 28 -30 15 0 54 -1 87
-2 l60 -2 0 -270 0 -270 36 -3 35 -3 -1 263 c0 145 1 268 3 275 2 8 29 12 80
11 109 0 104 -2 100 34 l-3 32 -203 1 c-111 0 -207 -1 -212 -3z"/>
<path d="M9332 3522 c-7 -2 -12 -11 -12 -21 0 -9 -4 -21 -8 -26 -5 -6 -17 -32
-27 -60 -9 -27 -23 -63 -30 -80 -7 -16 -34 -86 -60 -155 -26 -69 -51 -134 -56
-145 -5 -11 -18 -44 -29 -73 l-20 -53 37 3 c38 3 38 4 67 85 l29 81 140 -1
140 -2 31 -82 31 -83 38 0 c20 0 37 1 37 3 0 1 -53 139 -118 306 l-117 305
-31 1 c-16 1 -35 0 -42 -3z m94 -242 c20 -58 41 -111 47 -117 11 -16 17 -15
-114 -17 l-107 -2 30 81 c17 44 42 113 56 153 l26 74 12 -34 c7 -18 29 -80 50
-138z"/>
<path d="M10070 3518 c-139 -35 -229 -145 -236 -288 -5 -98 22 -169 88 -234
72 -69 124 -90 228 -91 123 0 197 41 246 136 23 45 37 129 27 156 -4 10 -37
13 -139 13 l-134 0 0 -33 0 -34 93 2 c50 0 97 -1 103 -3 16 -5 1 -68 -24 -101
-51 -69 -175 -93 -269 -51 -98 43 -147 116 -146 220 1 73 3 83 25 125 35 65
108 112 186 122 60 7 116 -8 175 -48 l47 -31 19 23 c19 24 19 24 -2 47 -57 61
-192 94 -287 70z"/>
<path d="M10709 3522 c-13 -2 -15 -45 -15 -307 l0 -305 188 0 188 0 0 30 c0
17 -3 31 -7 31 -5 1 -71 3 -148 4 -77 2 -143 3 -146 4 -4 1 -6 48 -6 106 l1
105 128 0 128 0 0 36 0 35 -77 -1 c-43 -1 -101 -1 -130 -1 l-51 1 1 99 1 98
144 -1 c79 0 148 2 154 5 5 3 8 19 6 35 l-3 28 -171 1 c-93 0 -177 -1 -185 -3z"/>
<path d="M11360 3523 c-13 -3 -15 -45 -14 -303 1 -165 3 -302 5 -304 5 -5 39
-9 55 -7 12 1 11 471 -1 491 -3 5 -4 10 -1 10 3 0 61 -73 130 -162 69 -90 129
-167 133 -173 5 -5 35 -45 68 -87 53 -69 63 -78 92 -78 l33 0 0 304 0 304 -24
4 c-48 9 -48 6 -44 -256 3 -135 4 -246 4 -246 -1 0 -20 24 -41 53 -22 28 -42
54 -45 57 -3 3 -28 34 -55 70 -26 36 -91 121 -143 190 -53 69 -96 126 -97 128
-4 5 -40 9 -55 5z"/>
<path d="M12340 3516 c-133 -34 -223 -161 -219 -307 3 -95 32 -163 94 -225 97
-94 226 -109 362 -42 50 25 58 41 37 73 l-16 25 -31 -24 c-70 -52 -162 -60
-242 -22 -93 44 -135 119 -131 233 5 142 90 227 226 227 69 0 105 -13 151 -58
l27 -25 21 23 c26 28 26 30 -1 57 -63 60 -184 89 -278 65z"/>
<path d="M12815 3522 c-2 -2 1 -9 6 -16 5 -6 27 -36 49 -66 22 -30 44 -60 50
-67 5 -7 10 -15 10 -18 0 -3 11 -18 25 -33 14 -15 25 -32 25 -39 0 -6 3 -13 8
-15 4 -1 20 -21 37 -43 29 -39 30 -40 30 -177 l0 -138 35 0 35 0 0 138 0 138
38 52 c20 29 37 54 37 56 0 2 34 54 75 115 41 61 70 111 65 112 -6 1 -21 1
-35 1 -41 0 -45 -1 -45 -17 0 -8 -4 -15 -10 -15 -5 0 -10 -4 -10 -8 0 -7 -135
-219 -148 -232 -3 -3 -7 0 -9 7 -2 7 -16 27 -31 47 -15 19 -56 75 -90 125 -35
50 -67 91 -70 92 -23 4 -73 4 -77 1z"/>
</g>
</svg>
